<svg width="85" height="20" viewBox="0 0 85 20" fill="none" xmlns="http://www.w3.org/2000/svg">
    <path fill-rule="evenodd" clip-rule="evenodd" d="M19.298 9.707c1.688 0 3.316.817 3.316 2.557 0 2.034-1.36 2.788-3.275 2.788-.824 0-1.297-.042-2.06-.146v-5.2h2.019zm2.574-4.55c0 1.426-1.318 2.306-2.965 2.306H17.28V3.27c.37-.104.988-.272 1.874-.272 1.441 0 2.718.629 2.718 2.16zm3.728 7.17c0-2.034-1.195-3.522-2.8-3.941 1.152-.482 2.058-1.761 2.058-3.313 0-2.662-2.326-4.36-5.745-4.36-1.4 0-3.316.44-4.798 1.048V16.96c1.461.252 3.727.399 4.715.399 4.49 0 6.57-2.202 6.57-5.032zM5.42 5.687c-.766 1-1.513 1.973-2.167 2.887l6.364 8.68h3.316L6.569 8.615C8.052 6.71 10.38 3.67 11.965 1.07H8.794C7.799 2.588 6.587 4.167 5.42 5.687zM2.965 17.253H0V1.07h2.965v16.184z" fill="#F9BE00"/>
    <path fill-rule="evenodd" clip-rule="evenodd" d="M82.13 5.262V0h-2.82v13.564h2.82v-6.08h2.595V5.262h-2.594zM72.74 19.12h10.008v-2.202h-9.082c-.68 0-.803-.272-.803-.88V12.62h-2.945v3.984c0 1.782 1.03 2.516 2.822 2.516zm.741-14.256c.041-.294.083-.608.083-.923V.63H70.72V3.92c0 1.446-.514 2.264-1.524 3.332-.658.692-1.73 1.636-2.594 2.307l1.483 1.782c.782-.524 1.894-1.384 2.698-2.16.638-.608 1.235-1.258 1.709-1.97 1.068.937 2.057 2.034 2.874 2.94.207.229.402.446.585.645L77.25 9.58c.186-.188.248-.44.062-.65-.885-1.09-2.306-2.788-3.83-4.066zM60.278 15.89c0-1.279-1.195-1.95-2.904-1.95-1.73 0-2.904.671-2.904 1.95s1.174 1.95 2.904 1.95c1.71 0 2.904-.671 2.904-1.95zm2.862 0c0 2.767-2.656 4.109-5.766 4.109s-5.766-1.363-5.766-4.11c0-2.745 2.657-4.108 5.766-4.108 3.11 0 5.766 1.341 5.766 4.109zM51.278 4.319v-3.9h12.13v2.139h-9.185v1.488c0 .776.165 1.153 1.092 1.153 2.595 0 5.972-.105 8.299-.21v2.034c-1.277.126-3.068.21-4.757.251v1.49h7.146v2.117H48.725V8.763h7.187V7.337h-1.318c-2.245 0-3.316-.838-3.316-3.018zm-15.756.46v1.343c0 .65.329.817.885.817 1.586 0 3.316-.063 5.725-.189V4.78h-6.61zM45.015.462v8.155c-3.377.42-7.022.503-9.143.503-2.245 0-3.234-.901-3.234-2.871V.46h2.884V2.58h6.61V.46h2.883zm-7.64 18.218v-5.513h-7.187v-2.244h17.278v2.244H40.34v5.513h-2.965z" fill="#7D7366"/>
</svg>
